solid ASCII
  facet normal 0.000000e+00 1.000000e+00 0.000000e+00
    outer loop
      vertex   2.033541e+01 3.750000e+01 6.966459e+01
      vertex   4.059602e+01 3.750000e+01 4.147381e+01
      vertex   2.033541e+01 3.750000e+01 1.000000e+01
    endloop
  endfacet
  facet normal 0.000000e+00 1.000000e+00 0.000000e+00
    outer loop
      vertex   2.033541e+01 3.750000e+01 1.000000e+01
      vertex   4.059602e+01 3.750000e+01 4.147381e+01
      vertex   6.180922e+01 3.750000e+01 2.026060e+01
    endloop
  endfacet
  facet normal 0.000000e+00 1.000000e+00 0.000000e+00
    outer loop
      vertex   2.033541e+01 3.750000e+01 1.000000e+01
      vertex   6.180922e+01 3.750000e+01 2.026060e+01
      vertex   9.000000e+01 3.750000e+01 1.000000e+01
    endloop
  endfacet
  facet normal -0.000000e+00 1.000000e+00 0.000000e+00
    outer loop
      vertex   2.033541e+01 3.750000e+01 6.966459e+01
      vertex   3.033541e+01 3.750000e+01 6.966459e+01
      vertex   4.059602e+01 3.750000e+01 4.147381e+01
    endloop
  endfacet
  facet normal 0.000000e+00 0.000000e+00 1.000000e+00
    outer loop
      vertex   2.033541e+01 1.250000e+01 6.966459e+01
      vertex   3.033541e+01 1.250000e+01 6.966459e+01
      vertex   2.033541e+01 3.750000e+01 6.966459e+01
    endloop
  endfacet
  facet normal -0.000000e+00 0.000000e+00 1.000000e+00
    outer loop
      vertex   2.033541e+01 3.750000e+01 6.966459e+01
      vertex   3.033541e+01 1.250000e+01 6.966459e+01
      vertex   3.033541e+01 3.750000e+01 6.966459e+01
    endloop
  endfacet
  facet normal 9.396926e-01 -0.000000e+00 3.420201e-01
    outer loop
      vertex   3.033541e+01 1.250000e+01 6.966459e+01
      vertex   4.059602e+01 1.250000e+01 4.147381e+01
      vertex   3.033541e+01 3.750000e+01 6.966459e+01
    endloop
  endfacet
  facet normal 9.396926e-01 0.000000e+00 3.420201e-01
    outer loop
      vertex   3.033541e+01 3.750000e+01 6.966459e+01
      vertex   4.059602e+01 1.250000e+01 4.147381e+01
      vertex   4.059602e+01 3.750000e+01 4.147381e+01
    endloop
  endfacet
  facet normal 7.071068e-01 -0.000000e+00 7.071068e-01
    outer loop
      vertex   4.059602e+01 1.250000e+01 4.147381e+01
      vertex   6.180922e+01 1.250000e+01 2.026060e+01
      vertex   4.059602e+01 3.750000e+01 4.147381e+01
    endloop
  endfacet
  facet normal 7.071068e-01 0.000000e+00 7.071068e-01
    outer loop
      vertex   4.059602e+01 3.750000e+01 4.147381e+01
      vertex   6.180922e+01 1.250000e+01 2.026060e+01
      vertex   6.180922e+01 3.750000e+01 2.026060e+01
    endloop
  endfacet
  facet normal 3.420201e-01 -0.000000e+00 9.396926e-01
    outer loop
      vertex   6.180922e+01 1.250000e+01 2.026060e+01
      vertex   9.000000e+01 1.250000e+01 1.000000e+01
      vertex   6.180922e+01 3.750000e+01 2.026060e+01
    endloop
  endfacet
  facet normal 3.420201e-01 0.000000e+00 9.396926e-01
    outer loop
      vertex   6.180922e+01 3.750000e+01 2.026060e+01
      vertex   9.000000e+01 1.250000e+01 1.000000e+01
      vertex   9.000000e+01 3.750000e+01 1.000000e+01
    endloop
  endfacet
  facet normal -1.000000e+00 0.000000e+00 0.000000e+00
    outer loop
      vertex   2.033541e+01 1.250000e+01 1.000000e+01
      vertex   2.033541e+01 1.250000e+01 6.966459e+01
      vertex   2.033541e+01 3.750000e+01 1.000000e+01
    endloop
  endfacet
  facet normal -1.000000e+00 0.000000e+00 0.000000e+00
    outer loop
      vertex   2.033541e+01 3.750000e+01 1.000000e+01
      vertex   2.033541e+01 1.250000e+01 6.966459e+01
      vertex   2.033541e+01 3.750000e+01 6.966459e+01
    endloop
  endfacet
  facet normal -0.000000e+00 -1.000000e+00 -0.000000e+00
    outer loop
      vertex   3.033541e+01 1.250000e+01 6.966459e+01
      vertex   2.033541e+01 1.250000e+01 6.966459e+01
      vertex   4.059602e+01 1.250000e+01 4.147381e+01
    endloop
  endfacet
  facet normal -0.000000e+00 -1.000000e+00 0.000000e+00
    outer loop
      vertex   4.059602e+01 1.250000e+01 4.147381e+01
      vertex   2.033541e+01 1.250000e+01 6.966459e+01
      vertex   2.033541e+01 1.250000e+01 1.000000e+01
    endloop
  endfacet
  facet normal 0.000000e+00 -1.000000e+00 -0.000000e+00
    outer loop
      vertex   4.059602e+01 1.250000e+01 4.147381e+01
      vertex   2.033541e+01 1.250000e+01 1.000000e+01
      vertex   6.180922e+01 1.250000e+01 2.026060e+01
    endloop
  endfacet
  facet normal 0.000000e+00 -1.000000e+00 -0.000000e+00
    outer loop
      vertex   6.180922e+01 1.250000e+01 2.026060e+01
      vertex   2.033541e+01 1.250000e+01 1.000000e+01
      vertex   9.000000e+01 1.250000e+01 1.000000e+01
    endloop
  endfacet
  facet normal 0.000000e+00 1.000000e+00 -0.000000e+00
    outer loop
      vertex   1.000000e+02 5.000000e+01 0.000000e+00
      vertex   0.000000e+00 5.000000e+01 0.000000e+00
      vertex   1.000000e+02 5.000000e+01 1.000000e+01
    endloop
  endfacet
  facet normal 0.000000e+00 1.000000e+00 0.000000e+00
    outer loop
      vertex   1.000000e+02 5.000000e+01 1.000000e+01
      vertex   0.000000e+00 5.000000e+01 0.000000e+00
      vertex   0.000000e+00 5.000000e+01 1.000000e+01
    endloop
  endfacet
  facet normal 1.000000e+00 0.000000e+00 0.000000e+00
    outer loop
      vertex   1.000000e+02 0.000000e+00 0.000000e+00
      vertex   1.000000e+02 5.000000e+01 0.000000e+00
      vertex   1.000000e+02 0.000000e+00 1.000000e+01
    endloop
  endfacet
  facet normal 1.000000e+00 -0.000000e+00 0.000000e+00
    outer loop
      vertex   1.000000e+02 0.000000e+00 1.000000e+01
      vertex   1.000000e+02 5.000000e+01 0.000000e+00
      vertex   1.000000e+02 5.000000e+01 1.000000e+01
    endloop
  endfacet
  facet normal 0.000000e+00 -1.000000e+00 0.000000e+00
    outer loop
      vertex   0.000000e+00 0.000000e+00 0.000000e+00
      vertex   1.000000e+02 0.000000e+00 0.000000e+00
      vertex   0.000000e+00 0.000000e+00 1.000000e+01
    endloop
  endfacet
  facet normal 0.000000e+00 -1.000000e+00 0.000000e+00
    outer loop
      vertex   0.000000e+00 0.000000e+00 1.000000e+01
      vertex   1.000000e+02 0.000000e+00 0.000000e+00
      vertex   1.000000e+02 0.000000e+00 1.000000e+01
    endloop
  endfacet
  facet normal -1.000000e+00 0.000000e+00 0.000000e+00
    outer loop
      vertex   0.000000e+00 5.000000e+01 0.000000e+00
      vertex   0.000000e+00 0.000000e+00 0.000000e+00
      vertex   0.000000e+00 5.000000e+01 1.000000e+01
    endloop
  endfacet
  facet normal -1.000000e+00 -0.000000e+00 0.000000e+00
    outer loop
      vertex   0.000000e+00 5.000000e+01 1.000000e+01
      vertex   0.000000e+00 0.000000e+00 0.000000e+00
      vertex   0.000000e+00 0.000000e+00 1.000000e+01
    endloop
  endfacet
  facet normal 0.000000e+00 -0.000000e+00 1.000000e+00
    outer loop
      vertex   9.000000e+01 3.750000e+01 1.000000e+01
      vertex   1.000000e+02 5.000000e+01 1.000000e+01
      vertex   2.033541e+01 3.750000e+01 1.000000e+01
    endloop
  endfacet
  facet normal 0.000000e+00 -0.000000e+00 1.000000e+00
    outer loop
      vertex   2.033541e+01 3.750000e+01 1.000000e+01
      vertex   1.000000e+02 5.000000e+01 1.000000e+01
      vertex   0.000000e+00 5.000000e+01 1.000000e+01
    endloop
  endfacet
  facet normal 0.000000e+00 0.000000e+00 1.000000e+00
    outer loop
      vertex   2.033541e+01 3.750000e+01 1.000000e+01
      vertex   0.000000e+00 5.000000e+01 1.000000e+01
      vertex   0.000000e+00 0.000000e+00 1.000000e+01
    endloop
  endfacet
  facet normal 0.000000e+00 0.000000e+00 1.000000e+00
    outer loop
      vertex   1.000000e+02 5.000000e+01 1.000000e+01
      vertex   9.000000e+01 3.750000e+01 1.000000e+01
      vertex   1.000000e+02 0.000000e+00 1.000000e+01
    endloop
  endfacet
  facet normal 0.000000e+00 0.000000e+00 1.000000e+00
    outer loop
      vertex   1.000000e+02 0.000000e+00 1.000000e+01
      vertex   9.000000e+01 3.750000e+01 1.000000e+01
      vertex   9.000000e+01 1.250000e+01 1.000000e+01
    endloop
  endfacet
  facet normal 0.000000e+00 0.000000e+00 1.000000e+00
    outer loop
      vertex   1.000000e+02 0.000000e+00 1.000000e+01
      vertex   9.000000e+01 1.250000e+01 1.000000e+01
      vertex   2.033541e+01 1.250000e+01 1.000000e+01
    endloop
  endfacet
  facet normal 0.000000e+00 0.000000e+00 1.000000e+00
    outer loop
      vertex   1.000000e+02 0.000000e+00 1.000000e+01
      vertex   2.033541e+01 1.250000e+01 1.000000e+01
      vertex   0.000000e+00 0.000000e+00 1.000000e+01
    endloop
  endfacet
  facet normal 0.000000e+00 0.000000e+00 1.000000e+00
    outer loop
      vertex   0.000000e+00 0.000000e+00 1.000000e+01
      vertex   2.033541e+01 1.250000e+01 1.000000e+01
      vertex   2.033541e+01 3.750000e+01 1.000000e+01
    endloop
  endfacet
  facet normal 0.000000e+00 0.000000e+00 -1.000000e+00
    outer loop
      vertex   0.000000e+00 5.000000e+01 0.000000e+00
      vertex   1.000000e+02 5.000000e+01 0.000000e+00
      vertex   0.000000e+00 0.000000e+00 0.000000e+00
    endloop
  endfacet
  facet normal 0.000000e+00 0.000000e+00 -1.000000e+00
    outer loop
      vertex   0.000000e+00 0.000000e+00 0.000000e+00
      vertex   1.000000e+02 5.000000e+01 0.000000e+00
      vertex   1.000000e+02 0.000000e+00 0.000000e+00
    endloop
  endfacet
endsolid
